<?xml version="1.0" encoding="UTF-8" standalone="no"?>
<!DOCTYPE svg PUBLIC "-//W3C//DTD SVG 1.1//EN" "http://www.w3.org/Graphics/SVG/1.1/DTD/svg11.dtd">
<svg width="100%" height="100%" viewBox="0 0 12622 10254" version="1.1" xmlns="http://www.w3.org/2000/svg" xmlns:xlink="http://www.w3.org/1999/xlink" xml:space="preserve" xmlns:serif="http://www.serif.com/" style="fill-rule:evenodd;clip-rule:evenodd;stroke-linecap:round;stroke-linejoin:round;stroke-miterlimit:1.5;">
    <g id="Artboard2" transform="matrix(1,0,0,1,15668.7,2455.17)">
        <rect x="-15668.7" y="-2455.17" width="12621.6" height="10253.1" style="fill:none;"/>
        <g transform="matrix(1,0,0,1,-15668.7,-2455.17)">
            <rect x="1464.98" y="1933.03" width="3615.08" height="7198.99" style="fill:rgb(69,55,64);"/>
        </g>
        <g transform="matrix(1,0,0,1,-11054.8,-2455.17)">
            <rect x="1464.98" y="1933.03" width="3615.08" height="7198.99" style="fill:rgb(69,55,64);"/>
        </g>
        <g transform="matrix(4.30343,0,0,4.30343,-24885.6,-9578.38)">
            <text x="2597.87px" y="2220.22px" style="font-family:'Nuu-Bold', 'Nuu';font-weight:700;font-size:50px;fill:rgb(244,244,244);">NUUD<tspan x="2760.72px 2794.32px " y="2220.22px 2220.22px ">AY</tspan> T<tspan x="2886.12px " y="2220.22px ">O</tspan>DO DEMO</text>
        </g>
        <g transform="matrix(4.30343,0,0,4.30343,-20292.1,-9146.24)">
            <text x="2597.87px" y="2220.22px" style="font-family:'Nuu-Bold', 'Nuu';font-weight:700;font-size:50px;fill:rgb(244,244,244);">NUUD<tspan x="2760.72px 2794.32px " y="2220.22px 2220.22px ">AY</tspan> T<tspan x="2886.12px " y="2220.22px ">O</tspan>DO DEMO</text>
        </g>
        <g transform="matrix(4.30343,0,0,4.30343,-20292.1,-9578.38)">
            <text x="2707.97px" y="2220.22px" style="font-family:'Nuu-Regular', 'Nuu';font-size:50px;fill:rgb(244,244,244);">WEL<tspan x="2831.77px 2871.67px " y="2220.22px 2220.22px ">CO</tspan>ME T<tspan x="3052.02px " y="2220.22px ">O</tspan></text>
        </g>
        <g transform="matrix(1.31356,0,0,1.31356,-16369.1,-2909.17)">
            <path d="M4226.4,2646.82C4226.4,2532.34 4133.46,2439.39 4018.97,2439.39L2056.36,2439.39C1941.88,2439.39 1848.93,2532.34 1848.93,2646.82C1848.93,2761.3 1941.88,2854.25 2056.36,2854.25L4018.97,2854.25C4133.46,2854.25 4226.4,2761.3 4226.4,2646.82Z" style="fill:none;stroke:rgb(91,254,96);stroke-width:15.81px;"/>
        </g>
        <g transform="matrix(1.31356,0,0,1.31356,-11821.6,-475.851)">
            <path d="M4226.4,2646.82C4226.4,2532.34 4133.46,2439.39 4018.97,2439.39L2056.36,2439.39C1941.88,2439.39 1848.93,2532.34 1848.93,2646.82C1848.93,2761.3 1941.88,2854.25 2056.36,2854.25L4018.97,2854.25C4133.46,2854.25 4226.4,2761.3 4226.4,2646.82Z" style="fill:none;stroke:rgb(91,254,96);stroke-width:15.81px;"/>
        </g>
        <g transform="matrix(0.131927,0,0,0.756675,-11533.2,-1435.2)">
            <path d="M4226.4,2646.65C4226.4,2532.26 3693.75,2439.39 3037.66,2439.39C2381.58,2439.39 1848.93,2532.26 1848.93,2646.65L1848.93,2646.99C1848.93,2761.38 2381.58,2854.25 3037.66,2854.25C3693.75,2854.25 4226.4,2761.38 4226.4,2646.99L4226.4,2646.65Z" style="fill:rgb(91,254,96);stroke:rgb(91,254,96);stroke-width:38.24px;"/>
        </g>
        <g transform="matrix(0.131927,0,0,0.756675,-6985.7,998.115)">
            <path d="M4226.4,2646.65C4226.4,2532.26 3693.75,2439.39 3037.66,2439.39C2381.58,2439.39 1848.93,2532.26 1848.93,2646.65L1848.93,2646.99C1848.93,2761.38 2381.58,2854.25 3037.66,2854.25C3693.75,2854.25 4226.4,2761.38 4226.4,2646.99L4226.4,2646.65Z" style="fill:rgb(91,254,96);stroke:rgb(91,254,96);stroke-width:38.24px;"/>
        </g>
        <g transform="matrix(1.31356,0,0,1.31356,-16369.1,-2086.51)">
            <path d="M4226.4,2646.82C4226.4,2532.34 4133.46,2439.39 4018.97,2439.39L2056.36,2439.39C1941.88,2439.39 1848.93,2532.34 1848.93,2646.82C1848.93,2761.3 1941.88,2854.25 2056.36,2854.25L4018.97,2854.25C4133.46,2854.25 4226.4,2761.3 4226.4,2646.82Z" style="fill:rgb(110,110,255);"/>
        </g>
        <g transform="matrix(0.131927,0,0,0.756675,-11533.2,-616.756)">
            <path d="M4226.4,2646.65C4226.4,2532.26 3693.75,2439.39 3037.66,2439.39C2381.58,2439.39 1848.93,2532.26 1848.93,2646.65L1848.93,2646.99C1848.93,2761.38 2381.58,2854.25 3037.66,2854.25C3693.75,2854.25 4226.4,2761.38 4226.4,2646.99L4226.4,2646.65Z" style="fill:none;stroke:black;stroke-width:38.24px;"/>
        </g>
        <g transform="matrix(0.629325,-0.629325,0.337926,0.337926,-14990,3227.09)">
            <path d="M4465.43,3028.44L4618.02,3028.44" style="fill:none;stroke:black;stroke-width:29.08px;"/>
        </g>
        <g transform="matrix(0.337926,0.337926,-0.337926,0.337926,-11693.6,-1143.68)">
            <path d="M4465.43,3028.44L4618.02,3028.44" style="fill:none;stroke:black;stroke-width:43.46px;"/>
        </g>
        <g transform="matrix(1.31356,0,0,1.31356,-16369.1,-1263.86)">
            <path d="M4226.4,2646.82C4226.4,2532.34 4133.46,2439.39 4018.97,2439.39L2056.36,2439.39C1941.88,2439.39 1848.93,2532.34 1848.93,2646.82C1848.93,2761.3 1941.88,2854.25 2056.36,2854.25L4018.97,2854.25C4133.46,2854.25 4226.4,2761.3 4226.4,2646.82Z" style="fill:rgb(110,110,255);"/>
        </g>
        <g transform="matrix(0.131927,0,0,0.756675,-11533.2,205.898)">
            <path d="M4226.4,2646.65C4226.4,2532.26 3693.75,2439.39 3037.66,2439.39C2381.58,2439.39 1848.93,2532.26 1848.93,2646.65L1848.93,2646.99C1848.93,2761.38 2381.58,2854.25 3037.66,2854.25C3693.75,2854.25 4226.4,2761.38 4226.4,2646.99L4226.4,2646.65Z" style="fill:none;stroke:black;stroke-width:38.24px;"/>
        </g>
        <g transform="matrix(0.629325,-0.629325,0.337926,0.337926,-14990,4049.74)">
            <path d="M4465.43,3028.44L4618.02,3028.44" style="fill:none;stroke:black;stroke-width:29.08px;"/>
        </g>
        <g transform="matrix(0.337926,0.337926,-0.337926,0.337926,-11693.6,-321.023)">
            <path d="M4465.43,3028.44L4618.02,3028.44" style="fill:none;stroke:black;stroke-width:43.46px;"/>
        </g>
        <g transform="matrix(1.31356,0,0,1.31356,-16369.1,-441.205)">
            <path d="M4226.4,2646.82C4226.4,2532.34 4133.46,2439.39 4018.97,2439.39L2056.36,2439.39C1941.88,2439.39 1848.93,2532.34 1848.93,2646.82C1848.93,2761.3 1941.88,2854.25 2056.36,2854.25L4018.97,2854.25C4133.46,2854.25 4226.4,2761.3 4226.4,2646.82Z" style="fill:rgb(110,110,255);"/>
        </g>
        <g transform="matrix(0.131927,0,0,0.756675,-11533.2,1028.55)">
            <path d="M4226.4,2646.65C4226.4,2532.26 3693.75,2439.39 3037.66,2439.39C2381.58,2439.39 1848.93,2532.26 1848.93,2646.65L1848.93,2646.99C1848.93,2761.38 2381.58,2854.25 3037.66,2854.25C3693.75,2854.25 4226.4,2761.38 4226.4,2646.99L4226.4,2646.65Z" style="fill:none;stroke:black;stroke-width:38.24px;"/>
        </g>
        <g transform="matrix(0.629325,-0.629325,0.337926,0.337926,-14990,4872.39)">
            <path d="M4465.43,3028.44L4618.02,3028.44" style="fill:none;stroke:black;stroke-width:29.08px;"/>
        </g>
        <g transform="matrix(0.337926,0.337926,-0.337926,0.337926,-11693.6,501.632)">
            <path d="M4465.43,3028.44L4618.02,3028.44" style="fill:none;stroke:black;stroke-width:43.46px;"/>
        </g>
        <g transform="matrix(1.31356,0,0,0.7939,-16366.3,4131.71)">
            <path d="M4226.4,2646.82C4226.4,2532.34 4170.23,2439.39 4101.03,2439.39L1974.3,2439.39C1905.1,2439.39 1848.93,2532.34 1848.93,2646.82C1848.93,2761.3 1905.1,2854.25 1974.3,2854.25L4101.03,2854.25C4170.23,2854.25 4226.4,2761.3 4226.4,2646.82Z" style="fill:none;stroke:rgb(255,250,30);stroke-width:19.14px;"/>
        </g>
        <g transform="matrix(1.31356,0,0,0.7939,-11774.5,4131.71)">
            <path d="M4226.4,2646.82C4226.4,2532.34 4170.23,2439.39 4101.03,2439.39L1974.3,2439.39C1905.1,2439.39 1848.93,2532.34 1848.93,2646.82C1848.93,2761.3 1905.1,2854.25 1974.3,2854.25L4101.03,2854.25C4170.23,2854.25 4226.4,2761.3 4226.4,2646.82Z" style="fill:none;stroke:rgb(255,250,30);stroke-width:19.14px;"/>
        </g>
        <g transform="matrix(1.31356,0,0,1.31356,-16369.1,381.45)">
            <path d="M4226.4,2646.82C4226.4,2532.34 4133.46,2439.39 4018.97,2439.39L2056.36,2439.39C1941.88,2439.39 1848.93,2532.34 1848.93,2646.82C1848.93,2761.3 1941.88,2854.25 2056.36,2854.25L4018.97,2854.25C4133.46,2854.25 4226.4,2761.3 4226.4,2646.82Z" style="fill:rgb(110,110,255);"/>
        </g>
        <g transform="matrix(0.131927,0,0,0.756675,-11533.2,1851.21)">
            <path d="M4226.4,2646.65C4226.4,2532.26 3693.75,2439.39 3037.66,2439.39C2381.58,2439.39 1848.93,2532.26 1848.93,2646.65L1848.93,2646.99C1848.93,2761.38 2381.58,2854.25 3037.66,2854.25C3693.75,2854.25 4226.4,2761.38 4226.4,2646.99L4226.4,2646.65Z" style="fill:none;stroke:black;stroke-width:38.24px;"/>
        </g>
        <g transform="matrix(0.629325,-0.629325,0.337926,0.337926,-14990,5695.05)">
            <path d="M4465.43,3028.44L4618.02,3028.44" style="fill:none;stroke:black;stroke-width:29.08px;"/>
        </g>
        <g transform="matrix(0.337926,0.337926,-0.337926,0.337926,-11693.6,1324.29)">
            <path d="M4465.43,3028.44L4618.02,3028.44" style="fill:none;stroke:black;stroke-width:43.46px;"/>
        </g>
        <g transform="matrix(1.31356,0,0,1.31356,-16369.1,1204.1)">
            <path d="M4226.4,2646.82C4226.4,2532.34 4133.46,2439.39 4018.97,2439.39L2056.36,2439.39C1941.88,2439.39 1848.93,2532.34 1848.93,2646.82C1848.93,2761.3 1941.88,2854.25 2056.36,2854.25L4018.97,2854.25C4133.46,2854.25 4226.4,2761.3 4226.4,2646.82Z" style="fill:rgb(110,110,255);"/>
        </g>
        <g transform="matrix(0.131927,0,0,0.756675,-11533.2,2673.86)">
            <path d="M4226.4,2646.65C4226.4,2532.26 3693.75,2439.39 3037.66,2439.39C2381.58,2439.39 1848.93,2532.26 1848.93,2646.65L1848.93,2646.99C1848.93,2761.38 2381.58,2854.25 3037.66,2854.25C3693.75,2854.25 4226.4,2761.38 4226.4,2646.99L4226.4,2646.65Z" style="fill:none;stroke:black;stroke-width:38.24px;"/>
        </g>
        <g transform="matrix(0.629325,-0.629325,0.337926,0.337926,-14990,6517.7)">
            <path d="M4465.43,3028.44L4618.02,3028.44" style="fill:none;stroke:black;stroke-width:29.08px;"/>
        </g>
        <g transform="matrix(0.337926,0.337926,-0.337926,0.337926,-11693.6,2146.94)">
            <path d="M4465.43,3028.44L4618.02,3028.44" style="fill:none;stroke:black;stroke-width:43.46px;"/>
        </g>
        <g transform="matrix(1.31356,0,0,1.31356,-16369.1,2026.76)">
            <path d="M4226.4,2646.82C4226.4,2532.34 4133.46,2439.39 4018.97,2439.39L2056.36,2439.39C1941.88,2439.39 1848.93,2532.34 1848.93,2646.82C1848.93,2761.3 1941.88,2854.25 2056.36,2854.25L4018.97,2854.25C4133.46,2854.25 4226.4,2761.3 4226.4,2646.82Z" style="fill:rgb(110,110,255);"/>
        </g>
        <g transform="matrix(0.131927,0,0,0.756675,-11533.2,3496.52)">
            <path d="M4226.4,2646.65C4226.4,2532.26 3693.75,2439.39 3037.66,2439.39C2381.58,2439.39 1848.93,2532.26 1848.93,2646.65L1848.93,2646.99C1848.93,2761.38 2381.58,2854.25 3037.66,2854.25C3693.75,2854.25 4226.4,2761.38 4226.4,2646.99L4226.4,2646.65Z" style="fill:none;stroke:black;stroke-width:38.24px;"/>
        </g>
        <g transform="matrix(0.629325,-0.629325,0.337926,0.337926,-14990,7340.36)">
            <path d="M4465.43,3028.44L4618.02,3028.44" style="fill:none;stroke:black;stroke-width:29.08px;"/>
        </g>
        <g transform="matrix(0.337926,0.337926,-0.337926,0.337926,-11693.6,2969.6)">
            <path d="M4465.43,3028.44L4618.02,3028.44" style="fill:none;stroke:black;stroke-width:43.46px;"/>
        </g>
        <g transform="matrix(1,0,0,1,-15674.2,-2460.86)">
            <path d="M4465.43,3028.44L4618.02,3028.44" style="fill:none;stroke:black;stroke-width:20.77px;"/>
        </g>
        <g transform="matrix(1,0,0,1,-11126.7,-27.5465)">
            <path d="M4465.43,3028.44L4618.02,3028.44" style="fill:none;stroke:black;stroke-width:20.77px;"/>
        </g>
        <g transform="matrix(6.12323e-17,1,-1,6.12323e-17,-8104.02,-3974.15)">
            <path d="M4465.43,3028.44L4618.02,3028.44" style="fill:none;stroke:black;stroke-width:20.77px;"/>
        </g>
        <g transform="matrix(6.12323e-17,1,-1,6.12323e-17,-3556.51,-1540.83)">
            <path d="M4465.43,3028.44L4618.02,3028.44" style="fill:none;stroke:black;stroke-width:20.77px;"/>
        </g>
        <g transform="matrix(4.26659,0,0,4.26659,-25164.4,-8849.78)">
            <text x="2688.54px" y="2220.22px" style="font-family:'Nuu-Light', 'Nuu';font-weight:300;font-size:37.11px;fill:rgb(244,244,244);">MY NEW T<tspan x="2902.04px " y="2220.22px ">O</tspan>DO</text>
        </g>
        <g transform="matrix(4.26659,0,0,4.26659,-25164.4,-8027.13)">
            <text x="2688.54px" y="2220.22px" style="font-family:'Nuu-Light', 'Nuu';font-weight:300;font-size:37.11px;">SHRED GUIT<tspan x="2927.31px " y="2220.22px ">A</tspan>R</text>
        </g>
        <g transform="matrix(4.26659,0,0,4.26659,-25164.4,-7204.47)">
            <text x="2688.54px" y="2220.22px" style="font-family:'Nuu-Light', 'Nuu';font-weight:300;font-size:37.11px;">YELL A<tspan x="2821.69px " y="2220.22px ">T</tspan> CL<tspan x="2911.95px " y="2220.22px ">O</tspan>UD<tspan x="3001.01px " y="2220.22px ">S</tspan></text>
        </g>
        <g transform="matrix(4.26659,0,0,4.26659,-25164.4,-6381.82)">
            <text x="2688.54px" y="2220.22px" style="font-family:'Nuu-Light', 'Nuu';font-weight:300;font-size:37.11px;">DONA<tspan x="2802.14px " y="2220.22px ">T</tspan>E TIME</text>
        </g>
        <g transform="matrix(4.26659,0,0,4.26659,-25164.4,-5559.16)">
            <text x="2688.54px" y="2220.22px" style="font-family:'Nuu-Light', 'Nuu';font-weight:300;font-size:37.11px;">D<tspan x="2715.82px " y="2220.22px ">A</tspan>NCE NAKED</text>
        </g>
        <g transform="matrix(4.26659,0,0,4.26659,-25164.4,-4736.51)">
            <text x="2688.54px" y="2220.22px" style="font-family:'Nuu-Light', 'Nuu';font-weight:300;font-size:37.11px;">CLAP WITH ONE HAND</text>
        </g>
        <g transform="matrix(4.26659,0,0,4.26659,-25164.4,-3913.85)">
            <text x="2688.54px" y="2220.22px" style="font-family:'Nuu-Light', 'Nuu';font-weight:300;font-size:37.11px;">BE C<tspan x="2780.95px " y="2220.22px ">O</tspan>OL A<tspan x="2905.16px " y="2220.22px ">S</tspan> A CUCUMBER</text>
        </g>
        <g transform="matrix(5.86328,0,0,5.86328,-24954.7,-9937.89)">
            <text x="2688.54px" y="2220.22px" style="font-family:'FiraSansCondensed-Regular', 'Fira Sans Condensed', sans-serif;font-stretch:condensed;font-size:39.156px;fill:rgb(137,137,137);">WRITE HERE AND PRE<tspan x="3022.27px 3041.22px " y="2220.22px 2220.22px ">SS</tspan> +</text>
        </g>
        <g transform="matrix(7.53718,0,0,7.53718,-29983.5,-15962.1)">
            <text x="2840.74px" y="2267.21px" style="font-family:'Nuu-Light', 'Nuu';font-weight:300;font-size:39.156px;fill:rgb(244,244,244);">BEHA<tspan x="2951.44px " y="2267.21px ">V</tspan>IOR</text>
            <text x="2868.84px" y="2314.2px" style="font-family:'Nuu-Light', 'Nuu';font-weight:300;font-size:39.156px;fill:rgb(244,244,244);">DRIVEN</text>
            <text x="2792.07px" y="2361.18px" style="font-family:'Nuu-Light', 'Nuu';font-weight:300;font-size:39.156px;fill:rgb(244,244,244);">C<tspan x="2822.89px " y="2361.18px ">O</tspan>MPONENT<tspan x="3073.61px " y="2361.18px ">S</tspan></text>
            <text x="2880.12px" y="2408.17px" style="font-family:'Nuu-Light', 'Nuu';font-weight:300;font-size:39.156px;fill:rgb(244,244,244);">DEMO</text>
        </g>
        <g transform="matrix(2.72038,0,0,2.72038,-20387,230.531)">
            <text x="2441.41px" y="2220.22px" style="font-family:'Nuu-Light', 'Nuu';font-weight:300;font-size:39.156px;fill:white;">BROUGHT T<tspan x="2694.79px " y="2220.22px ">O</tspan> Y<tspan x="2767.35px " y="2220.22px ">O</tspan>U B<tspan x="2870.8px " y="2220.22px ">Y</tspan></text>
            <text x="2911.64px" y="2220.22px" style="font-family:'Nuu-Bold', 'Nuu';font-weight:700;font-size:39.156px;fill:white;">NUUD<tspan x="3039.17px 3065.48px " y="2220.22px 2220.22px ">AY</tspan></text>
            <text x="3108.39px" y="2220.22px" style="font-family:'Nuu-Regular', 'Nuu';font-size:39.156px;fill:white;">(<tspan x="3122.57px " y="2220.22px ">C</tspan>LICK T<tspan x="3286.4px " y="2220.22px ">O</tspan> VISIT)</text>
        </g>
        <g transform="matrix(2.72038,0,0,2.72038,-15798.8,230.531)">
            <text x="2441.41px" y="2220.22px" style="font-family:'Nuu-Light', 'Nuu';font-weight:300;font-size:39.156px;fill:white;">BROUGHT T<tspan x="2694.79px " y="2220.22px ">O</tspan> Y<tspan x="2767.35px " y="2220.22px ">O</tspan>U B<tspan x="2870.8px " y="2220.22px ">Y</tspan></text>
            <text x="2911.64px" y="2220.22px" style="font-family:'Nuu-Bold', 'Nuu';font-weight:700;font-size:39.156px;fill:white;">NUUD<tspan x="3039.17px 3065.48px " y="2220.22px 2220.22px ">AY</tspan></text>
            <text x="3108.39px" y="2220.22px" style="font-family:'Nuu-Regular', 'Nuu';font-size:39.156px;fill:white;">(<tspan x="3122.57px " y="2220.22px ">C</tspan>LICK T<tspan x="3286.4px " y="2220.22px ">O</tspan> VISIT)</text>
        </g>
    </g>
</svg>
